<svg id="圖層_1" data-name="圖層 1" xmlns="http://www.w3.org/2000/svg" viewBox="0 0 595.28 841.89"><defs><style>.cls-1,.cls-2,.cls-3{fill:none;stroke:#333;stroke-miterlimit:10;}.cls-1,.cls-3{stroke-linecap:round;}.cls-1{stroke-width:6px;}.cls-2,.cls-3{stroke-width:2.8px;}</style></defs><title>logo_white</title><path class="cls-1" d="M241,171.56c-8.83,3.27-17.36,6.92-26.85,7.62-23.3,1.69-36.5-13.94-38.48-34.67-1-10.81,2.32-32.54,6.72-42.79,1.19-2.77,4.16-2.44,5.06-1,2.42,3.87,3.85,8.31,6.26,12.19a6,6,0,0,0,4.15,3.07,8,8,0,0,0,3.48-.71,58.9,58.9,0,0,1,31.19-2.48c3,.55,6.09,1.15,9.09.57s6-5.15,8.12-7c1.62-1.41,12.63-13.1,13.47-6.17.94,7.73.46,32.74-3.37,44.32,4.15-12.54,21.6-19.09,32.55-21.32a118.62,118.62,0,0,1,58.47,2.9c19.27,6,34,18.79,44.22,36,2.46,4.14,5.15,9.1,10.15,10.53a7.3,7.3,0,0,0,7.09-1.58c4.84-4.89-2.08-10.65-7-6.48-6.08,5.2-4.4,13.32-3.78,20.24a165.71,165.71,0,0,1,.56,27.46c-1.21,16-6,33.24-17.4,45.06-14.33,14.8-37.5,15.92-56.69,18.1-30.49,3.47-61.33,5.9-92,2.95-4.54-.44-9.16-1-13.25-3-8.19-4-11.37-13.48-1.08-17,18.46-6.26,40.37-5.83,59.66-6.19,23.2-.44,46.53.19,69.49,3.84,30.83,4.91,60.57,16.29,85.56,35.21"/><path class="cls-2" d="M334.36,208.49l-.08,5.15a2.18,2.18,0,0,1,0-2.57c.55-1,3.53-4.51,5.25-3.87,1.06.4.09,2.12-.28,2.73a8.26,8.26,0,0,1-2.07,2.18,9.41,9.41,0,0,0-2.33,2.08,15.59,15.59,0,0,0,1.88-.83c.71-.32,1.42-.62,2.14-.9a39.84,39.84,0,0,1,4.07-1.39"/><path class="cls-2" d="M337,190.55a25.79,25.79,0,0,1-7.81,8.08"/><path class="cls-2" d="M331.75,197.1q-.33,8-1.31,16a35.61,35.61,0,0,1-2.19,9.71"/><path class="cls-2" d="M332.46,198.63a17,17,0,0,1,4.92-2.21.93.93,0,0,1,1.38,1,3.86,3.86,0,0,1-1.25,2.47,10,10,0,0,1-3.5,2.39,29.85,29.85,0,0,1,7.58-2.4"/><path class="cls-2" d="M355.92,194a15.49,15.49,0,0,0-3.23,5.77,3.58,3.58,0,0,1,.64-.37c1.57-.67,6.12-3.63,7.1-1.41a2.5,2.5,0,0,1-.3,2,80.14,80.14,0,0,1-5.24,9.08,16.8,16.8,0,0,1-6.22,6.12c-.09.05-.21.08-.27,0s.09-.22.11-.11"/><path class="cls-2" d="M350.43,202.41l15.92,13.11c2.62,2.16,5.33,4.36,8.55,5.3"/><path class="cls-2" d="M288.17,196.66c4.59-1.53,9.69-3.13,14.28-4.66"/><path class="cls-2" d="M292.71,190.12l-1,8.18"/><path class="cls-2" d="M299.09,187.15c-.93,4.1-2.37,8.87-3.55,12.67"/><path class="cls-2" d="M290.91,206.52c-.59,4.88-1.21,9.19-2,14,1-4,1.79-8.36,4.48-11.41,1.95-2.2,5.17-3,6.84,0a6.47,6.47,0,0,1,.3,5c-1.63,5-6.65,6-10.66,7.44,6.7-3,13.76-4.9,20.38-8.11"/><path class="cls-2" d="M291.91,215.73c3.78-1.92,6.91-4,10.34-5.27"/><path class="cls-2" d="M296.59,208c-.83,3.76-1.22,7.55-2.35,11.25"/><path class="cls-2" d="M269.85,214.19a3.39,3.39,0,0,0,3.91,2.27c1.93-.44,3.37-3.43,2.09-5.31s-4.07-1.23-5.37.43A2.87,2.87,0,0,0,269.85,214.19Z"/><path class="cls-2" d="M267.32,209.15a1.75,1.75,0,0,0,1.71-2.67c-.94-1.42-3.09-.09-2.65,1.57A1.36,1.36,0,0,0,267.32,209.15Z"/><path class="cls-2" d="M272,206.41a1.08,1.08,0,0,0,1.87-.16,3.31,3.31,0,0,0,.35-2.76.91.91,0,0,0-1.61-.3,3.14,3.14,0,0,0-.82,2.74A1.51,1.51,0,0,0,272,206.41Z"/><path class="cls-2" d="M278.25,204.61a2.94,2.94,0,0,0-.73,1.3,1.18,1.18,0,0,0,1.14,1.59,1.33,1.33,0,0,0,.92-.66,1.86,1.86,0,0,0-.29-2.32.75.75,0,0,0-1.11.22"/><path class="cls-2" d="M215.64,172.66a26.47,26.47,0,0,1,6.73-2.72c2.24-.63,6.83-1.91,8.87-.38,1.82,1.37,1.94,2.72,1.42,4.83a17,17,0,0,1-2.89,5.52l-2.28,3.29c-.56.82-1.36,1.73-2.24,1.49"/><path class="cls-2" d="M215.71,188.6l7.56-2.49,3.28-1.08a30.3,30.3,0,0,1,7.37-1.75"/><path class="cls-2" d="M212.22,202.12c5.06-1,9.09-3.63,11.64-4.78"/><path class="cls-2" d="M217,201.21a51.35,51.35,0,0,1-.2,8.88,16.67,16.67,0,0,1-1.29,4.09c-.87,1.32-2.14,3-3,1.85,0,0-1-1.36.18-2.09a118.38,118.38,0,0,1,11.82-6.34c7.82-3.53,6-3.69,12.76-6.26-1.29,4.09-1.33,5.27-2.58,8.18-.85-1.12-.65-2.58.35-4.17s6.23-6.82,8.94-5.53c.84,1.12.21,3.64-2.4,6.09-1,1-5.19,3.44-6,4.74a75.64,75.64,0,0,1,13.52-4.1"/><path class="cls-2" d="M207.93,242.3a201.76,201.76,0,0,1,41-16.47"/><path class="cls-3" d="M233.45,222.05a220.15,220.15,0,0,1-5.8,68.89c-.89,3.72-2.25,7.89-5.74,9.45-4.94,2.22-10.08-2.13-14.64-5.06a31.33,31.33,0,0,0-30.18-1.73c-3,1.48-5.78,3.45-8.91,4.62s-6.88,1.44-9.66-.42"/><path class="cls-2" d="M393.92,188a31.3,31.3,0,0,1-.62,6.61c.29-1.74,1.95-3,3.62-4a27.9,27.9,0,0,1,11.22-3.52c1.12-.11,2.52,0,3,.9.54,1.1-.84,2.14-2,2.7a98.85,98.85,0,0,1-12.29,4.82c8.23-2.35,12.14-3.07,20.57-4.83"/><path class="cls-2" d="M387.94,212.27l35.93-8.07"/><path class="cls-2" d="M394.44,206.87a33.07,33.07,0,0,1,6.63-2.31c2.22-.56,6.76-1.72,8.85-.69,1.87.93,2,1.91,1.59,3.48a11.76,11.76,0,0,1-2.69,4.19l-2.16,2.52a2.64,2.64,0,0,1-2.2,1.19"/><path class="cls-2" d="M393.18,219l7.65-2.2,3.32-1a30.5,30.5,0,0,1,7.43-1.48"/></svg>