<svg id="圖層_1" data-name="圖層 1" xmlns="http://www.w3.org/2000/svg" viewBox="0 0 424.09 351.22"><title>logo</title><path d="M1105.07,312.25c-31.73-15.42-60.43-30.9-92.14-46.37q-48.64-23.73-97.3-47.47c-8-3.89-15.87-7.87-23.8-11.81h-.61Q870.52,220,849.8,233.32q-82.27,52.77-164.57,105.49c-.28.18-.57.35-.86.52a2,2,0,0,0-1,1.7v209.6a2,2,0,0,0,1.91,2c2,.08,3.91.16,5.86.22,27.52.86,55,2,82.57,2.48,17.34.3,34.7-.41,52-.6,20.07-.21,40.14-.76,60.2-.4s40.1,1.74,60.16,2.53c12.49.49,25,1.21,37.49.88,10.36-.27,20.66-2,31-2.93,6.12-.53,12.28-.87,18.42-.91,23.32-.16,43.65-.16,67-.27a44.16,44.16,0,0,0,5.19-.48,2,2,0,0,0,1.75-1.87c0-.55.05-1.09.05-1.63q.1-102.38.22-204.75c0-9.59.06-19.18.24-28.76A3.64,3.64,0,0,0,1105.07,312.25ZM821.86,540.61c-7.31,6.18-15.9,8.84-25.55,9-9.66-.28-18.74-2.79-26.37-9.29-9.78-8.31-9.63-20.47.26-28.61,13.38-11,37.06-11.43,50.86-.89C832,519.2,832.39,531.7,821.86,540.61Zm191.75-12.08c-.75,5.16-3.71,9.11-7.64,12.3-7.5,6.1-16.26,8.63-25.78,8.75-8.87-.14-17-2.52-24-7.89-12.21-9.26-11.87-23.18.74-31.91,13.56-9.39,35.06-9,48.15.91C1010.88,515.12,1014.75,520.71,1013.61,528.53Zm-25.07-33.76c-16.12-3.65-30.16.73-42.28,11.54-7.31,6.53-8.61,15.2-7.5,24.43.34,2.82.88,5.62,1.41,8.5a2,2,0,0,1-2,2.35H838.64a2,2,0,0,1-2-2.25c.48-3.65,1-7.25,1.33-10.87,1.15-12.23-3.83-21.28-14.34-27.48-18.21-10.74-36.29-10.13-54,.93-4.63,2.9-8.81,6.53-13.52,10.25a2,2,0,0,1-3-.66c-2.84-5.65-5.94-11.34-8.37-17.32-12.54-30.87-7.87-60,9.38-87.76,15.53-25,37.85-41.55,65-52,8.55-3.27,17.46-5.58,26.21-8.31l.18-.05a2,2,0,0,1,2.49,1.69c.92,7.6,1.84,15.13,2.77,22.8a2,2,0,0,0,2,1.76h3.16a2,2,0,0,0,2-1.79c.43-4.36.88-8.75,1.26-13.15.25-2.81.21-5.65.56-8.44.59-4.62,2.43-6.41,7.1-6.64,3.44-.18,6.89-.08,10.56,0a2,2,0,0,1,2,1.86c.73,10.08,1.45,19.9,2.17,29.92a2,2,0,0,0,1.86,1.85l2.74.17a2,2,0,0,0,2.1-1.75c.48-3.91,1-7.67,1.3-11.45.5-5.82.81-11.65,1.22-17.48.14-2,1.12-3,3.27-3,3.52,0,7.06-.49,10.55-.23,3.88.28,5.64,2,6,5.94.64,6.52.84,13.07,1.28,19.61.18,2.66.45,5.3.7,8a2,2,0,0,0,1.88,1.81l2.5.13a2,2,0,0,0,2.09-1.79c1-9.54,2-18.92,3-28.77a2,2,0,0,1,2.48-1.73c7.39,1.85,14.6,3.48,21.65,5.64,21.24,6.51,40.4,16.85,56.16,32.71,18,18.09,30.87,39.06,34.13,64.91,2.17,17.24-1.13,33.73-8,49.57-1.67,3.86-3.59,7.61-5.56,11.62a2,2,0,0,1-2.91.77l-.81-.57C1009.8,503.27,1000,497.35,988.54,494.77Zm32.13,47.84a2,2,0,0,1-1.83-2.89c3.92-7.85,7.53-15.42,11.6-22.73,7.12-12.78,12.89-26,15.52-40.46,3.58-19.7,1.4-38.75-7.66-56.55-8.86-17.4-11.34-35.53-9.78-54.44a2,2,0,0,0-.77-1.74l-29.24-22.27a2,2,0,0,0-1.72-.34c-4.21,1.12-8.4,2.36-12.5,3.82a37,37,0,0,1-26.88-.57A223,223,0,0,0,914.18,332c-23.3-4.08-46.14-2.34-68.79,4.45-15.67,4.69-31.66,8-48.18,8a90.83,90.83,0,0,1-36.74-7.69,26.07,26.07,0,0,0-2.8-1.14c-5.06-1.6-9.42.41-10.5,5.57a37.41,37.41,0,0,0-.38,11.38,182.55,182.55,0,0,1,.32,39.86c-.75,6.66-4.46,12-7.21,17.83-8.69,18.29-13.31,37.37-11.66,57.74,1.4,17.33,7.36,33.12,16,48.09,4.41,7.68,8.37,15.61,12.51,23.44v0a2,2,0,0,1-1.79,2.86H692.35a2,2,0,0,1-2-2v-1.58c0-64.32-1-128.64-1.06-193,0-2.34-.23-3.59,1.69-4.82C757.09,298.77,823.16,261.42,889.2,219c2-1.27,3.41-1.21,5.46-.21C952.43,247,1007.23,273.23,1065,301.42c11.6,5.66,19.19,9.33,30.83,14.9,1.91.91,1.58,1,1.58,3.13-.16,73.06.73,146.13.65,219.18a2,2,0,0,1-1.94,2Z" transform="translate(-683.41 -206.6)"/><path d="M857.2,455.48a1.93,1.93,0,0,1,3.35,0l1.71,3c.55,1,1.11,1.92,1.71,2.85,4.52,6.94,9.93,7.87,16,2.65a1.94,1.94,0,0,0,.33-2.58l-10.24-14.72a1.93,1.93,0,0,1,1.58-3H902a1.93,1.93,0,0,1,1.62,3l-9.45,14.66a2,2,0,0,0,.18,2.34c5,5.69,10.25,5.31,14.81-1,1.77-2.45,3.52-4.91,5.36-7.3v0a1.9,1.9,0,0,1,3.18.48,16.29,16.29,0,0,1,.47,13.06c-2.09,5.31-6.48,7.92-12,8.4a177.85,177.85,0,0,1-39.25-.42c-5.44-.73-9.47-3.53-11.25-8.82C854.21,463.6,855,459.51,857.2,455.48Z" transform="translate(-683.41 -206.6)"/><path d="M967.35,431.27c-5.25,0-11.38-6.92-11.39-12.89,0-5.07,7.31-12.5,12.27-12.45,5.17.06,13.66,8.33,13.73,13.37S973.45,431.26,967.35,431.27Z" transform="translate(-683.41 -206.6)"/><path d="M802.37,421.44a6.36,6.36,0,0,1,.47-8.56c1.74-1.72,3.46-3.37,5.28-4.9,3.34-2.81,5.79-2.81,9.29-.21,2.82,2.1,5.44,4.47,8.08,6.79,1.33,1.17,1.1,6.3-.4,7.4-2.51,1.85-5,3.71-7.66,5.39a8.79,8.79,0,0,1-11.24-1.44C804.89,424.48,803.65,423,802.37,421.44Z" transform="translate(-683.41 -206.6)"/><circle cx="350.59" cy="116.4"/></svg>